<svg width="24" height="24" viewBox="0 0 24 24" fill="none" xmlns="http://www.w3.org/2000/svg">
<path id="Button Shape" fill-rule="evenodd" clip-rule="evenodd" d="M10.4589 0.149191C8.46913 0.475437 6.59536 1.32375 5.01929 2.61183C3.44322 3.89992 2.21835 5.58406 1.4635 7.50089C0.708647 9.41772 0.449435 11.5022 0.711005 13.5521C0.972575 15.602 1.74605 17.5477 2.9564 19.2005L0.289811 22.1371C0.146393 22.2949 0.0510513 22.4922 0.0155149 22.7049C-0.0200215 22.9175 0.00579687 23.1362 0.0897941 23.334C0.173791 23.5317 0.312304 23.7 0.488294 23.8181C0.664284 23.9362 0.870076 23.9989 1.08036 23.9986H11.8307C14.9033 24.0465 17.8768 22.8836 20.1387 20.7495C22.4006 18.6153 23.7786 15.6724 23.989 12.5269C24.0642 10.7484 23.753 8.97497 23.0779 7.33503C22.4028 5.6951 21.3808 4.22971 20.0857 3.04496C18.7907 1.86022 17.2551 0.985775 15.5901 0.484943C13.9251 -0.0158894 12.1724 -0.130575 10.4589 0.149191Z" fill="#09598C"/>
</svg>
