<svg width="24" height="24" viewBox="0 0 24 24" fill="none" xmlns="http://www.w3.org/2000/svg">
<path id="Button Shape" d="M17.2438 0.00192625C16.2069 0.0284193 15.1904 0.331631 14.2782 0.886557C13.3659 1.44148 12.5841 2.23223 11.9972 3.19358C11.4114 2.23269 10.6308 1.44205 9.71977 0.886802C8.80877 0.331559 7.79345 0.0276096 6.75746 0C4.91653 0.113649 3.18598 1.02304 1.92776 2.53797C0.669539 4.0529 -0.0189014 6.05603 0.00642687 8.12841V8.26324C-0.00214229 8.37218 -0.00214229 8.48175 0.00642687 8.59069C0.331984 19.512 12.0006 24 12.0006 24C12.0006 24 23.6642 19.512 23.9949 8.59069C24.0017 8.48168 24.0017 8.37226 23.9949 8.26324V8.12841C24.0193 6.0565 23.3305 4.05412 22.0724 2.53971C20.8144 1.02529 19.0843 0.116032 17.2438 0.00192625Z" fill="#09598C"/>
</svg>
