<svg width="24" height="24" viewBox="0 0 24 24" fill="none" xmlns="http://www.w3.org/2000/svg">
<path id="Button Shape" d="M14.4 18.1061V22.6965C14.4 23.0422 14.5264 23.3737 14.7515 23.6182C14.9765 23.8627 15.2817 24 15.6 24H22.8C23.1183 24 23.4235 23.8627 23.6485 23.6182C23.8736 23.3737 24 23.0422 24 22.6965V11.1731C24 10.8992 23.9504 10.628 23.8539 10.3749C23.7574 10.1218 23.616 9.89191 23.4377 9.69822L13.356 0.610636C13.178 0.417056 12.9666 0.263486 12.7339 0.158708C12.5013 0.0539306 12.2519 0 12 0C11.7481 0 11.4987 0.0539306 11.2661 0.158708C11.0334 0.263486 10.822 0.417056 10.644 0.610636L0.562286 9.69822C0.384002 9.89191 0.242583 10.1218 0.146106 10.3749C0.0496287 10.628 -1.81875e-05 10.8992 4.99802e-09 11.1731L4.99802e-09 22.6965C4.99802e-09 23.0422 0.126428 23.3737 0.351472 23.6182C0.576515 23.8627 0.88174 24 1.2 24H8.4C8.71826 24 9.02348 23.8627 9.24853 23.6182C9.47357 23.3737 9.6 23.0422 9.6 22.6965V18.1061C9.6 17.4147 9.85286 16.7515 10.3029 16.2626C10.753 15.7737 11.3635 15.499 12 15.499C12.6365 15.499 13.247 15.7737 13.6971 16.2626C14.1471 16.7515 14.4 17.4147 14.4 18.1061Z" fill="#09598C"/>
</svg>
