<svg width="24" height="24" viewBox="0 0 24 24" fill="none" xmlns="http://www.w3.org/2000/svg">
<path id="Button Shape" d="M0 20.484V18.7594C0.0363731 18.1311 0.267382 17.5236 0.668049 17.0024C1.06872 16.4812 1.6238 16.0662 2.27327 15.8023C8.51539 13.5976 15.4846 13.5976 21.7267 15.8023C22.3762 16.0662 22.9313 16.4812 23.332 17.0024C23.7326 17.5236 23.9636 18.1311 24 18.7594V20.484C23.9997 20.9462 23.8959 21.4039 23.6944 21.8308C23.4928 22.2578 23.1976 22.6456 22.8255 22.9721C22.4534 23.2986 22.0118 23.5575 21.5258 23.7339C21.0399 23.9102 20.5192 24.0007 19.9935 24H4.0065C3.4808 24.0007 2.9601 23.9102 2.47417 23.7339C1.98824 23.5575 1.54661 23.2986 1.17452 22.9721C0.802431 22.6456 0.507182 22.2578 0.30565 21.8308C0.104118 21.4039 0.000255628 20.9462 0 20.484ZM12 2.50742e-07C10.6812 -0.000338824 9.39183 0.343223 8.29507 0.987236C7.1983 1.63125 6.34338 2.54678 5.83841 3.61805C5.33345 4.68932 5.20113 5.8682 5.45818 7.00559C5.71524 8.14299 6.35013 9.18781 7.28255 10.0079C8.21497 10.828 9.40305 11.3866 10.6965 11.6129C11.99 11.8393 13.3308 11.7233 14.5492 11.2796C15.7677 10.8359 16.8092 10.0844 17.5419 9.12026C18.2747 8.15608 18.6658 7.02249 18.6658 5.86286C18.6661 5.09302 18.4938 4.33067 18.159 3.61937C17.8241 2.90806 17.3331 2.26173 16.7141 1.7173C16.0951 1.17286 15.3602 0.740974 14.5513 0.446317C13.7425 0.15166 12.8755 2.17814e-07 12 2.50742e-07Z" fill="#09598C"/>
</svg>
