<svg width="18" height="19" viewBox="0 0 18 19" fill="none" xmlns="http://www.w3.org/2000/svg">
<path id="Vector" fill-rule="evenodd" clip-rule="evenodd" d="M8.88498 2.53684L8.88757 0L17.5392 0.00946255L17.5299 8.88844L15.058 8.88565L15.0629 4.33391L11.3003 8.19538C12.9295 10.6627 12.6792 14.0468 10.5494 16.2326C8.13612 18.7093 4.22334 18.7093 1.81001 16.2326C-0.603337 13.7559 -0.603337 9.74031 1.81001 7.26347C3.90826 5.11011 7.14007 4.82898 9.53422 6.4201L13.3134 2.54168L8.88498 2.53684ZM3.5579 9.05727C5.0059 7.57131 7.35352 7.57131 8.80155 9.05727C10.2496 10.5433 10.2496 12.9527 8.80155 14.4388C7.35352 15.9249 5.0059 15.9249 3.5579 14.4388C2.1099 12.9527 2.1099 10.5433 3.5579 9.05727Z" fill="#FCA93F"/>
</svg>
